<?xml version="1.0" encoding="UTF-8"?>
<!DOCTYPE svg PUBLIC "-//W3C//DTD SVG 1.1//EN" "http://www.w3.org/Graphics/SVG/1.1/DTD/svg11.dtd">
<svg xmlns="http://www.w3.org/2000/svg" version="1.1" width="96px" height="96px" style="shape-rendering:geometricPrecision; text-rendering:geometricPrecision; image-rendering:optimizeQuality; fill-rule:evenodd; clip-rule:evenodd" xmlns:xlink="http://www.w3.org/1999/xlink">
<g><path style="opacity:0.823" fill="#02c99c" d="M 3.5,-0.5 C 4.16667,-0.5 4.83333,-0.5 5.5,-0.5C 8.34363,2.23996 8.01029,4.5733 4.5,6.5C 0.966733,4.57981 0.6334,2.24648 3.5,-0.5 Z"/></g>
<g><path style="opacity:0.85" fill="#e0e9fc" d="M 66.5,7.5 C 53.8333,8.83333 41.1667,8.83333 28.5,7.5C 41.1667,2.16667 53.8333,2.16667 66.5,7.5 Z"/></g>
<g><path style="opacity:0.77" fill="#ffa200" d="M 95.5,9.5 C 95.5,10.1667 95.5,10.8333 95.5,11.5C 92.76,14.3436 90.4267,14.0103 88.5,10.5C 90.4202,6.96673 92.7535,6.6334 95.5,9.5 Z"/></g>
<g><path style="opacity:0.958" fill="#8198d2" d="M 28.5,7.5 C 41.1667,8.83333 53.8333,8.83333 66.5,7.5C 75.6328,8.63582 81.2995,13.6358 83.5,22.5C 83.5,26.1667 83.5,29.8333 83.5,33.5C 82.5,33.5 81.5,33.5 80.5,33.5C 80.8128,29.9581 80.4794,26.6248 79.5,23.5C 78.1867,18.0131 74.8534,14.1798 69.5,12C 54.8333,11.3333 40.1667,11.3333 25.5,12C 20.1466,14.1798 16.8133,18.0131 15.5,23.5C 14.5206,26.6248 14.1872,29.9581 14.5,33.5C 13.5,33.5 12.5,33.5 11.5,33.5C 11.5,29.8333 11.5,26.1667 11.5,22.5C 13.7005,13.6358 19.3672,8.63582 28.5,7.5 Z"/></g>
<g><path style="opacity:1" fill="#e1e9fe" d="M 79.5,23.5 C 79.6641,26.1873 79.4974,28.854 79,31.5C 77.5098,30.2721 76.0098,30.2721 74.5,31.5C 74.8541,28.0388 73.5208,25.5388 70.5,24C 54.8333,23.3333 39.1667,23.3333 23.5,24C 21.253,25.995 20.253,28.495 20.5,31.5C 18.9902,30.2721 17.4902,30.2721 16,31.5C 15.5026,28.854 15.3359,26.1873 15.5,23.5C 16.8133,18.0131 20.1466,14.1798 25.5,12C 40.1667,11.3333 54.8333,11.3333 69.5,12C 74.8534,14.1798 78.1867,18.0131 79.5,23.5 Z"/></g>
<g><path style="opacity:0.957" fill="#e4ecfe" d="M 11.5,22.5 C 11.5,26.1667 11.5,29.8333 11.5,33.5C 9.0233,35.8602 8.0233,38.8602 8.5,42.5C 8.66667,44.5 8.83333,46.5 9,48.5C 9.7083,49.3805 10.5416,50.0472 11.5,50.5C 14.211,52.7011 17.211,53.3678 20.5,52.5C 21.1914,60.5033 25.5247,63.5033 33.5,61.5C 33.5,63.1667 33.5,64.8333 33.5,66.5C 29.1539,66.3343 24.8206,66.501 20.5,67C 19.944,67.3826 19.6107,67.8826 19.5,68.5C 18.596,69.209 18.2627,70.209 18.5,71.5C 15.9407,71.1984 13.6074,71.5318 11.5,72.5C 3.76069,61.2889 1.59403,48.9556 5,35.5C 6.14308,30.5469 8.30975,26.2136 11.5,22.5 Z"/></g>
<g><path style="opacity:1" fill="#506bfe" d="M 74.5,31.5 C 74.5,38.5 74.5,45.5 74.5,52.5C 74.4828,54.5648 74.1495,56.5648 73.5,58.5C 67.4863,58.7888 61.8197,59.7888 56.5,61.5C 48.8333,61.5 41.1667,61.5 33.5,61.5C 25.5247,63.5033 21.1914,60.5033 20.5,52.5C 20.5,45.5 20.5,38.5 20.5,31.5C 20.253,28.495 21.253,25.995 23.5,24C 39.1667,23.3333 54.8333,23.3333 70.5,24C 73.5208,25.5388 74.8541,28.0388 74.5,31.5 Z"/></g>
<g><path style="opacity:0.952" fill="#e4ecfe" d="M 83.5,22.5 C 91.2377,33.7037 93.4043,46.037 90,59.5C 88.8569,64.4531 86.6903,68.7864 83.5,72.5C 81.3926,71.5318 79.0593,71.1984 76.5,71.5C 76.7373,70.209 76.404,69.209 75.5,68.5C 75.3893,67.8826 75.056,67.3826 74.5,67C 70.1794,66.501 65.8461,66.3343 61.5,66.5C 61.5,65.5 61.5,64.5 61.5,63.5C 66.5111,63.6659 71.5111,63.4993 76.5,63C 81.7915,60.5914 84.1249,56.4247 83.5,50.5C 84.4584,50.0472 85.2917,49.3805 86,48.5C 86.6667,44.5 86.6667,40.5 86,36.5C 85.3021,35.3094 84.4687,34.3094 83.5,33.5C 83.5,29.8333 83.5,26.1667 83.5,22.5 Z"/></g>
<g><path style="opacity:1" fill="#8ea1ff" d="M 31.5,30.5 C 42.1719,30.3335 52.8385,30.5002 63.5,31C 68.9865,36.0814 68.6531,40.7481 62.5,45C 52.1667,45.6667 41.8333,45.6667 31.5,45C 26.2018,40.0918 26.2018,35.2584 31.5,30.5 Z"/></g>
<g><path style="opacity:1" fill="#a2b8ee" d="M 15.5,23.5 C 15.3359,26.1873 15.5026,28.854 16,31.5C 17.4902,30.2721 18.9902,30.2721 20.5,31.5C 20.5,38.5 20.5,45.5 20.5,52.5C 17.211,53.3678 14.211,52.7011 11.5,50.5C 12.5,50.5 13.5,50.5 14.5,50.5C 14.5,44.8333 14.5,39.1667 14.5,33.5C 14.1872,29.9581 14.5206,26.6248 15.5,23.5 Z"/></g>
<g><path style="opacity:1" fill="#a1b7ed" d="M 79.5,23.5 C 80.4794,26.6248 80.8128,29.9581 80.5,33.5C 80.5,39.1667 80.5,44.8333 80.5,50.5C 80.7845,52.4147 80.4511,54.0813 79.5,55.5C 78.3947,53.7769 76.7281,52.7769 74.5,52.5C 74.5,45.5 74.5,38.5 74.5,31.5C 76.0098,30.2721 77.5098,30.2721 79,31.5C 79.4974,28.854 79.6641,26.1873 79.5,23.5 Z"/></g>
<g><path style="opacity:1" fill="#506bfe" d="M 11.5,33.5 C 12.5,33.5 13.5,33.5 14.5,33.5C 14.5,39.1667 14.5,44.8333 14.5,50.5C 13.5,50.5 12.5,50.5 11.5,50.5C 10.5416,50.0472 9.7083,49.3805 9,48.5C 8.83333,46.5 8.66667,44.5 8.5,42.5C 8.0233,38.8602 9.0233,35.8602 11.5,33.5 Z"/></g>
<g><path style="opacity:1" fill="#506bfe" d="M 80.5,33.5 C 81.5,33.5 82.5,33.5 83.5,33.5C 84.4687,34.3094 85.3021,35.3094 86,36.5C 86.6667,40.5 86.6667,44.5 86,48.5C 85.2917,49.3805 84.4584,50.0472 83.5,50.5C 82.5,50.5 81.5,50.5 80.5,50.5C 80.5,44.8333 80.5,39.1667 80.5,33.5 Z"/></g>
<g><path style="opacity:1" fill="#556fff" d="M 36.5,34.5 C 40.8514,33.533 43.1847,35.1996 43.5,39.5C 40.462,38.4744 37.462,38.3077 34.5,39C 34.0426,38.586 33.7093,38.086 33.5,37.5C 34.3398,36.265 35.3398,35.265 36.5,34.5 Z"/></g>
<g><path style="opacity:1" fill="#556fff" d="M 53.5,34.5 C 55.9892,34.2978 58.3225,34.7978 60.5,36C 61.3366,37.0113 61.67,38.1779 61.5,39.5C 58.1667,38.1667 54.8333,38.1667 51.5,39.5C 51.3915,37.4862 52.0582,35.8195 53.5,34.5 Z"/></g>
<g><path style="opacity:1" fill="#8398d5" d="M 80.5,50.5 C 81.5,50.5 82.5,50.5 83.5,50.5C 84.1249,56.4247 81.7915,60.5914 76.5,63C 71.5111,63.4993 66.5111,63.6659 61.5,63.5C 59.2188,63.9227 57.5521,63.256 56.5,61.5C 61.8197,59.7888 67.4863,58.7888 73.5,58.5C 76.6638,60.1906 78.6638,59.1906 79.5,55.5C 80.4511,54.0813 80.7845,52.4147 80.5,50.5 Z"/></g>
<g><path style="opacity:1" fill="#899cff" d="M 41.5,52.5 C 45.5546,52.1758 49.5546,52.5091 53.5,53.5C 50.7638,56.3049 47.4305,57.1382 43.5,56C 42.1772,55.1841 41.5106,54.0174 41.5,52.5 Z"/></g>
<g><path style="opacity:1" fill="#dfe8fd" d="M 74.5,52.5 C 76.7281,52.7769 78.3947,53.7769 79.5,55.5C 78.6638,59.1906 76.6638,60.1906 73.5,58.5C 74.1495,56.5648 74.4828,54.5648 74.5,52.5 Z"/></g>
<g><path style="opacity:1" fill="#323fd4" d="M 33.5,61.5 C 41.1667,61.5 48.8333,61.5 56.5,61.5C 57.5521,63.256 59.2188,63.9227 61.5,63.5C 61.5,64.5 61.5,65.5 61.5,66.5C 52.1667,66.5 42.8333,66.5 33.5,66.5C 33.5,64.8333 33.5,63.1667 33.5,61.5 Z"/></g>
<g><path style="opacity:1" fill="#526cfe" d="M 33.5,66.5 C 42.8333,66.5 52.1667,66.5 61.5,66.5C 65.8461,66.3343 70.1794,66.501 74.5,67C 75.056,67.3826 75.3893,67.8826 75.5,68.5C 75.5,72.8333 75.5,77.1667 75.5,81.5C 69.4669,86.6816 62.4669,90.015 54.5,91.5C 53.4324,90.5655 52.099,90.2322 50.5,90.5C 50.8128,86.9581 50.4794,83.6248 49.5,80.5C 47.3926,79.5318 45.0593,79.1984 42.5,79.5C 42.1568,81.4832 42.8235,82.8166 44.5,83.5C 44.5,85.8333 44.5,88.1667 44.5,90.5C 42.901,90.2322 41.5676,90.5655 40.5,91.5C 36.8361,90.4459 33.1694,89.2792 29.5,88C 26.2444,86.884 23.5777,85.0507 21.5,82.5C 19.6287,78.1338 18.962,73.4671 19.5,68.5C 19.6107,67.8826 19.944,67.3826 20.5,67C 24.8206,66.501 29.1539,66.3343 33.5,66.5 Z"/></g>
<g><path style="opacity:1" fill="#90a2ff" d="M 19.5,68.5 C 18.962,73.4671 19.6287,78.1338 21.5,82.5C 17.1881,80.1881 13.8548,76.8548 11.5,72.5C 13.6074,71.5318 15.9407,71.1984 18.5,71.5C 18.2627,70.209 18.596,69.209 19.5,68.5 Z"/></g>
<g><path style="opacity:1" fill="#91a2ff" d="M 75.5,68.5 C 76.404,69.209 76.7373,70.209 76.5,71.5C 79.0593,71.1984 81.3926,71.5318 83.5,72.5C 81.5472,76.1203 78.8805,79.1203 75.5,81.5C 75.5,77.1667 75.5,72.8333 75.5,68.5 Z"/></g>
<g><path style="opacity:1" fill="#e4e6ff" d="M 46.5,72.5 C 51.1972,73.8743 51.5305,75.8743 47.5,78.5C 44.025,76.9158 43.6917,74.9158 46.5,72.5 Z"/></g>
<g><path style="opacity:1" fill="#f7f8ff" d="M 49.5,80.5 C 49.5,84.1667 49.5,87.8333 49.5,91.5C 48.1667,91.5 46.8333,91.5 45.5,91.5C 45.8064,88.6146 45.4731,85.9479 44.5,83.5C 42.8235,82.8166 42.1568,81.4832 42.5,79.5C 45.0593,79.1984 47.3926,79.5318 49.5,80.5 Z"/></g>
<g><path style="opacity:1" fill="#b1bdff" d="M 49.5,80.5 C 50.4794,83.6248 50.8128,86.9581 50.5,90.5C 52.099,90.2322 53.4324,90.5655 54.5,91.5C 52.8333,91.5 51.1667,91.5 49.5,91.5C 49.5,87.8333 49.5,84.1667 49.5,80.5 Z"/></g>
<g><path style="opacity:0.794" fill="#ff4860" d="M -0.5,86.5 C -0.5,85.8333 -0.5,85.1667 -0.5,84.5C 1.98704,80.4344 4.32037,80.601 6.5,85C 4.84491,88.944 2.51157,89.444 -0.5,86.5 Z"/></g>
<g><path style="opacity:1" fill="#afbbff" d="M 44.5,83.5 C 45.4731,85.9479 45.8064,88.6146 45.5,91.5C 43.8333,91.5 42.1667,91.5 40.5,91.5C 41.5676,90.5655 42.901,90.2322 44.5,90.5C 44.5,88.1667 44.5,85.8333 44.5,83.5 Z"/></g>
<g><path style="opacity:0.799" fill="#00c99d" d="M 88.5,95.5 C 87.8333,95.5 87.1667,95.5 86.5,95.5C 83.6334,92.7535 83.9667,90.4202 87.5,88.5C 91.0103,90.4267 91.3436,92.76 88.5,95.5 Z"/></g>
</svg>
